<?xml version="1.0" encoding="iso-8859-1"?>
<!-- Generator: Adobe Illustrator 19.0.0, SVG Export Plug-In . SVG Version: 6.00 Build 0)  -->
<svg xmlns="http://www.w3.org/2000/svg" xmlns:xlink="http://www.w3.org/1999/xlink" version="1.1" id="Layer_1" x="0px" y="0px" viewBox="0 0 466.47 466.47" style="enable-background:new 0 0 466.47 466.47;" xml:space="preserve" width="512" height="512">
<g>
	<path style="fill:#F7B239;" d="M376.48,285.504l-286.49,9l-51,20.186v16.068c0,6.358,5.154,11.512,11.512,11.512h6.133l3.82,21   l2.73,15h24.34v-36h8.495h274.43h8.505v36h24.34l2.73-15l3.81-21h6.122c6.358,0,11.512-5.154,11.512-11.512V314.69L376.48,285.504z   "/>
	<path style="fill:#C67934;" d="M406.48,118.58v65.18c-17.48,6.17-30,94.67-30,94.67c0-13.11-286.49-13.11-286.49,0   c0,0-12.52-88.5-30-94.67v-65.18c0-16.78,13.6-30.38,30.38-30.38H376.1C392.88,88.2,406.48,101.8,406.48,118.58"/>
	<path style="fill:#C67934;" d="M410.738,272.991v41.699H55.731v-41.699c0-15.076,13.173-27.301,29.418-27.301h296.158   C397.566,245.69,410.738,257.914,410.738,272.991"/>
	<path style="fill:#B26729;" d="M114.37,88.2h-24c-16.78,0-30.38,13.6-30.38,30.38v65.18l0,0   c13.055,4.608,23.342,15.072,27.715,28.235c-1.696-44.031-3.715-93.415-3.715-93.415C83.99,101.8,97.589,88.2,114.37,88.2"/>
	<path style="fill:#B26729;" d="M352.099,88.2l24,0c16.78,0,30.38,13.6,30.38,30.38v65.18l0,0   c-13.055,4.608-23.342,15.072-27.715,28.235c1.696-44.031,3.715-93.415,3.715-93.415C382.48,101.8,368.88,88.2,352.099,88.2"/>
	<polyline style="fill:#E5A030;" points="87.525,342.27 56.635,342.27 60.455,363.27 87.525,363.27 87.525,342.27  "/>
	<polyline style="fill:#E5A030;" points="409.835,342.27 378.955,342.27 378.955,363.27 406.025,363.27 409.835,342.27  "/>
	<g>
		<path style="fill:#B26729;" d="M152.99,167.7h-10.5v-10.5c0-3.314-2.687-6-6-6s-6,2.686-6,6v10.5h-10.5c-3.313,0-6,2.686-6,6    s2.687,6,6,6h10.5v10.5c0,3.314,2.687,6,6,6s6-2.686,6-6v-10.5h10.5c3.313,0,6-2.686,6-6S156.303,167.7,152.99,167.7z"/>
		<path style="fill:#B26729;" d="M346.48,167.7h-10.5v-10.5c0-3.314-2.687-6-6-6s-6,2.686-6,6v10.5h-10.5c-3.313,0-6,2.686-6,6    s2.687,6,6,6h10.5v10.5c0,3.314,2.687,6,6,6s6-2.686,6-6v-10.5h10.5c3.313,0,6-2.686,6-6S349.794,167.7,346.48,167.7z"/>
		<path style="fill:#B26729;" d="M249.73,167.7h-10.49v-10.5c0-3.314-2.687-6-6-6s-6,2.686-6,6v10.5h-10.5c-3.313,0-6,2.686-6,6    s2.687,6,6,6h10.5v10.5c0,3.314,2.687,6,6,6s6-2.686,6-6v-10.5h10.49c3.313,0,6-2.686,6-6S253.044,167.7,249.73,167.7z"/>
	</g>
	<path style="fill:#B26729;" d="M376.864,220.219c-0.034,0.117-0.068,0.233-0.102,0.349c-4.767,16.071-19.762,26.936-36.526,26.936   H126.233c-16.764,0-31.758-10.865-36.526-26.936c-0.034-0.116-0.068-0.232-0.102-0.349c-1.406-4.875-1.901-8.224-1.901-8.224   L89.99,314.69h22v-36.26c0-0.407,0.01-0.811,0.03-1.213c0.523-10.384,9.423-18.38,19.82-18.38h202.788   c10.397,0,19.297,7.996,19.82,18.38c0.02,0.402,0.03,0.806,0.03,1.213v36.26h22l2.285-102.695   C378.765,211.995,378.27,215.344,376.864,220.219z"/>
	<path style="fill:#C67934;" d="M466.47,226.19c0,22.82-16.98,41.66-39,44.59v43.91h-50.99v-36.26v-52.24   c0-19.59,12.52-36.26,30-42.43c4.69-1.66,9.73-2.56,14.99-2.56C446.33,181.2,466.47,201.34,466.47,226.19z"/>
	<path style="fill:#F7B239;" d="M421.47,210.35c8.84,0,16,7.16,16,16s-7.16,16-16,16c-8.83,0-16-7.16-16-16   S412.64,210.35,421.47,210.35z"/>
	<path style="fill:#E5A030;" d="M416.803,226.35c0-6.841,4.302-12.659,10.335-14.948c-1.764-0.669-3.669-1.052-5.669-1.052   c-8.83,0-16,7.16-16,16c0,8.84,7.17,16,16,16c1.999,0,3.905-0.383,5.669-1.052C421.105,239.009,416.803,233.19,416.803,226.35z"/>
	<path style="fill:#C67934;" d="M89.99,278.43v36.26h-51v-43.91C16.98,267.85,0,249.01,0,226.19c0-24.85,20.14-44.99,44.99-44.99   c5.26,0,10.31,0.9,15,2.56c17.48,6.17,30,22.84,30,42.43V278.43"/>
	<path style="fill:#F7B239;" d="M44.99,210.35c8.84,0,16,7.16,16,16c0,8.84-7.16,16-16,16c-8.83,0-16-7.16-16-16   C28.99,217.51,36.16,210.35,44.99,210.35"/>
	<path style="fill:#E5A030;" d="M40.323,226.35c0-6.841,4.302-12.659,10.335-14.948c-1.764-0.669-3.669-1.052-5.669-1.052   c-8.83,0-16,7.16-16,16c0,8.84,7.17,16,16,16c1.999,0,3.905-0.383,5.669-1.052C44.625,239.009,40.323,233.19,40.323,226.35z"/>
</g>















</svg>
